<?xml version="1.0" encoding="utf-8"?>
<!-- Generator: Adobe Illustrator 19.2.1, SVG Export Plug-In . SVG Version: 6.00 Build 0)  -->
<svg version="1.1" id="Layer_1" xmlns="http://www.w3.org/2000/svg" xmlns:xlink="http://www.w3.org/1999/xlink" x="0px" y="0px"
	 viewBox="0 0 640 480" style="enable-background:new 0 0 640 480;" xml:space="preserve">
<style type="text/css">
	.st0{fill:#000066;}
	.st1{fill:#FFFFFF;}
	.st2{fill:#CC0000;}
</style>
<g>
	<path class="st0" d="M0,0h640v480H0V0z"/>
	<path class="st1" d="M0,0v24.7L294.8,221h37.1v-24.7L37.1,0H0z M331.9,0v24.7L37.1,221H0v-24.7L294.8,0H331.9z"/>
	<path class="st1" d="M138.3,0v221h55.3V0H138.3L138.3,0z M0,73.7v73.7h331.9V73.7H0z"/>
	<path class="st2" d="M0,88.4v44.2h331.9V88.4H0z M149.3,0v221h33.2V0H149.3L149.3,0z M0,221l110.6-73.7h24.7L24.7,221H0z M0,0
		l110.6,73.7H85.9L0,16.5V0z M196.5,73.7L307.1,0h24.7L221.2,73.7H196.5z M331.9,221l-110.6-73.7H246l85.9,57.2V221L331.9,221z"/>
	<g>
		<path class="st1" d="M233.8,373.2l-43.7,3.8l6,43.4l-30.2-31.8l-30.2,31.8l6-43.4L98,373.2l37.7-22.4l-24.2-36.5l41,15.5
			l13.4-41.7l13.4,41.7l41-15.5l-24.2,36.5 M481.4,373.3l-10.8-16.2l18.2,6.9l6-18.5l6,18.5l18.2-6.9l-10.8,16.2l16.7,9.9l-19.4,1.7
			l2.7,19.3L494.8,390l-13.4,14.1l2.7-19.3l-19.4-1.7 M481.4,85l-10.8-16.2l18.2,6.9l6-18.5l6,18.5l18.2-6.9L508.2,85l16.7,9.9
			l-19.4,1.7l2.7,19.3l-13.4-14.1l-13.4,14.1l2.7-19.3L464.7,95 M373.4,202.1l-10.8-16.2l18.2,6.9l6-18.5l6,18.5l18.2-6.9
			l-10.8,16.2l16.7,9.9l-19.4,1.7l2.7,19.3l-13.4-14.1L373.3,233l2.7-19.3l-19.4-1.7 M577.5,173.3l-10.8-16.2L585,164l5.9-18.5
			l6,18.5l18.2-6.9l-10.7,16.2l16.7,9.9l-19.4,1.7l2.7,19.3L591,190.1l-13.4,14.1l2.7-19.3l-19.3-1.7 M538.1,258.2l-10.6,6.6l3-12.1
			l-9.5-8l12.4-0.9l4.7-11.5l4.7,11.5l12.4,0.9l-9.5,8l3,12.1"/>
	</g>
</g>
</svg>
