<?xml version="1.0" encoding="utf-8"?>
<!-- Generator: Adobe Illustrator 19.2.1, SVG Export Plug-In . SVG Version: 6.00 Build 0)  -->
<svg version="1.1"
	 id="svg566" xmlns:cc="http://creativecommons.org/ns#" xmlns:dc="http://purl.org/dc/elements/1.1/" xmlns:rdf="http://www.w3.org/1999/02/22-rdf-syntax-ns#"
	 xmlns="http://www.w3.org/2000/svg" xmlns:xlink="http://www.w3.org/1999/xlink" x="0px" y="0px" viewBox="0 0 640 480"
	 style="enable-background:new 0 0 640 480;" xml:space="preserve">
<style type="text/css">
	.st0{fill:#00006A;}
	.st1{fill:#FFFFFF;}
	.st2{fill:#FF0000;}
</style>
<g id="flag">
	<rect id="rect580" class="st0" width="640" height="480"/>
	<g id="g560" transform="matrix(1.342 0 0 1.2608 -.0013058 -1.3763)">
		<path id="path572" class="st1" d="M0,1.1l205.3,184.8h42.1L46.5,1.2L0,1.1z"/>
		<path id="path577" class="st2" d="M232,185.9L31,1.1L15.4,1.3l201.8,184.5L232,185.9L232,185.9z"/>
		<path id="path581" class="st1" d="M247.4,1.1L42.1,185.9H0L200.9,1.2L247.4,1.1z"/>
		<path id="path579" class="st2" d="M232,1.1L31.1,185.9H15.5L217.2,1.1H232L232,1.1z"/>
		<rect id="rect570" x="103.9" y="1.1" class="st1" width="39.6" height="184.8"/>
		<rect id="rect569" x="0" y="75" class="st1" width="247.4" height="37"/>
		<rect id="rect574" x="112.6" y="1.1" class="st2" width="22.3" height="184.8"/>
		<rect id="rect575" x="0" y="84.2" class="st2" width="247.4" height="18.4"/>
	</g>
	<g id="g8203" transform="matrix(.86562 0 0 .86562 58.74 83.943)">
		<g id="g591" transform="matrix(1.0266 0 0 1.0321 -.00099878 .00044559)">
			<polygon id="polygon589" class="st1" points="509.3,65.1 487.3,48.9 464.4,63.9 473,38 451.7,20.9 479,21.1 488.7,-4.5 497,21.5 
				524.3,22.8 502.1,38.7 			"/>
			<polygon id="polygon590" class="st2" points="500.5,52 487.5,42.6 474.1,51.6 479,36.3 466.4,26.4 482.4,26.3 487.9,11.2 
				493,26.5 509,27.1 496.1,36.5 			"/>
		</g>
		<g id="g594" transform="matrix(1.0266 0 0 1.0321 -86.795 144.08)">
			<polygon id="polygon595" class="st1" points="509.3,65.1 487.3,48.9 464.4,63.9 473,38 451.7,20.9 479,21.1 488.7,-4.5 497,21.5 
				524.3,22.8 502.1,38.7 			"/>
			<polygon id="polygon596" class="st2" points="500.5,52 487.5,42.6 474.1,51.6 479,36.3 466.4,26.4 482.4,26.3 487.9,11.2 
				493,26.5 509,27.1 496.1,36.5 			"/>
		</g>
		<g id="g597" transform="matrix(1.0266 0 0 1.0321 90.83 129.88)">
			<polygon id="polygon598" class="st1" points="509.3,65.1 487.3,48.9 464.4,63.9 473,38 451.7,20.9 479,21.1 488.7,-4.5 497,21.5 
				524.3,22.8 502.1,38.7 			"/>
			<polygon id="polygon599" class="st2" points="500.5,52 487.5,42.6 474.1,51.6 479,36.3 466.4,26.4 482.4,26.3 487.9,11.2 
				493,26.5 509,27.1 496.1,36.5 			"/>
		</g>
		<g id="g600" transform="matrix(1.0266 0 0 1.0321 -2.0195 334.84)">
			<polygon id="polygon601" class="st1" points="509.3,65.1 487.3,48.9 464.4,63.9 473,38 451.7,20.9 479,21.1 488.7,-4.5 497,21.5 
				524.3,22.8 502.1,38.7 			"/>
			<polygon id="polygon602" class="st2" points="500.5,52 487.5,42.6 474.1,51.6 479,36.3 466.4,26.4 482.4,26.3 487.9,11.2 
				493,26.5 509,27.1 496.1,36.5 			"/>
		</g>
	</g>
</g>
</svg>
