<?xml version="1.0" encoding="utf-8"?>
<!-- Generator: Adobe Illustrator 19.2.1, SVG Export Plug-In . SVG Version: 6.00 Build 0)  -->
<svg version="1.1" id="Layer_1" xmlns="http://www.w3.org/2000/svg" xmlns:xlink="http://www.w3.org/1999/xlink" x="0px" y="0px"
	 viewBox="0 0 640 480" style="enable-background:new 0 0 640 480;" xml:space="preserve">
<style type="text/css">
	.st0{fill:#67B1FF;}
	.st1{fill:#0000B4;}
	.st2{fill:#FFFFFF;}
	.st3{fill:#CC0000;}
	.st4{fill:#C10000;}
	.st5{fill:#00006B;}
</style>
<path class="st0" d="M0,0v480h640V0H0z"/>
<g>
	<path class="st1" d="M45.2,29H274v147H45.2V29z"/>
	<path class="st2" d="M45.2,29v16.4L248.4,176H274v-16.4L70.8,29H45.2z M274,29v16.4L70.8,176H45.2v-16.4L248.4,29H274L274,29z"/>
	<path class="st2" d="M140.5,29v147h38.1V29H140.5z M45.2,78v49H274V78H45.2z"/>
	<path class="st3" d="M45.2,87.8v29.4H274V87.8H45.2z M148.1,29v147H171V29H148.1z M45.2,176l76.3-49h17.1l-76.3,49H45.2z M45.2,29
		l76.3,49h-17.1L45.2,40V29z M180.6,78l76.3-49H274l-76.3,49H180.6z M274,176l-76.3-49h17.1l59.2,38L274,176L274,176z"/>
</g>
<g id="flag">
	<rect id="rect661" x="319.1" y="0" class="st4" width="320.9" height="480"/>
</g>
<g id="g7004" transform="scale(.77831)">
	<rect id="rect671" x="460.9" y="37.3" class="st2" width="308.6" height="245.4"/>
	<g id="g668" transform="matrix(1.0321 0 0 1.0321 0 .000061451)">
		<rect id="rect666" x="569.6" y="73.2" class="st4" width="47.7" height="165.6"/>
		<rect id="rect667" x="510" y="132.4" class="st4" width="166.9" height="47.3"/>
	</g>
</g>
<g id="g3051" transform="scale(1.3126)">
	<rect id="rect552" x="272.9" y="194.5" class="st5" width="184.9" height="90.8"/>
	<g id="g4187" transform="matrix(.42837 0 0 .42837 114.71 5.6278)">
		<polygon id="polygon553" class="st2" points="592.8,635.6 575.6,624.3 559.2,635.8 564.5,615.6 548.7,603.1 569,601.9 
			575.7,582.7 583.1,602.2 602.9,602.8 587.2,616 		"/>
		<polygon id="polygon555" class="st2" points="589.8,501 576.1,492.3 562.7,500.9 566.4,484.8 554.4,474.3 570.4,472.9 
			576.4,457.8 582.5,473.2 598.3,474.4 586.1,485.1 		"/>
		<polygon id="polygon556" class="st2" points="529.3,549.4 516,540.4 502.4,549.4 506.6,533.7 494.1,523.2 510,522.5 515.9,507 
			521.5,522.3 537.6,523.2 525.2,533.4 		"/>
		<polygon id="polygon557" class="st2" points="650.6,538.6 637.8,530.5 625.4,538.7 629,523.8 617.5,514.2 632.5,513.1 
			637.9,498.9 643.6,513.2 658.3,514 646.9,524 		"/>
		<polygon id="polygon558" class="st2" points="614.9,574 606.4,568.8 597.9,574.1 600.1,564.1 592.5,557.5 602.4,556.6 
			606.3,547.2 610.2,556.6 620.1,557.4 612.6,564.1 		"/>
	</g>
</g>
</svg>
