<?xml version="1.0" encoding="utf-8"?>
<!-- Generator: Adobe Illustrator 19.0.0, SVG Export Plug-In . SVG Version: 6.00 Build 0)  -->
<svg version="1.1" id="Layer_1" xmlns="http://www.w3.org/2000/svg" xmlns:xlink="http://www.w3.org/1999/xlink" x="0px" y="0px"
	 viewBox="1.8 330 502.8 167.2" style="enable-background:new 1.8 330 502.8 167.2;" xml:space="preserve">
<g id="Layer_1_1_">
</g>
<g id="Layer_2">
	<path d="M119.7,473.6c1.2,3,1,5.6-0.8,8.2c-1.2,1.8-2.4,3.7-3.5,5.6c-0.9,1.5-1.8,3.1-2.8,4.6c-0.6,1-1.6,1.8-3,2.6
		c-1.6,0.9-3.2,1.9-4.9,2.3c-1,0.2-2,0.3-3,0.3s-2-0.1-2.9-0.3c-1.2-0.3-2.1-1.2-2.5-2.5s-0.2-2.7,0.6-3.6c1.2-1.4,1.5-3.1,1.7-4.9
		c0-0.4,0.1-0.7,0.2-1.1s0.1-0.8,0.2-1.2c0.1-1.1,0.3-2.1,0.6-3.2c0.2-0.8,0.8-1.9,1.7-2.5c0.7-0.4,0.8-0.8,0.5-1.6
		c-1.3-3.5-2.9-7.1-5.8-9.9c-2.3-2.2-4.9-4.8-6.9-7.9c-1.6-2.4-3-5.1-4.2-7.7c-0.6-1.2-1.2-2.4-1.8-3.5c-0.7-1.3-1.4-2.6-2.1-3.8
		c-0.7-1.2-1.3-2.5-2-3.7c-0.5-1-1.3-1.6-2.7-2c-3-0.9-4.2-2.6-4.3-5.8v-0.5v-0.2c0-0.8-0.2-1.8-0.9-2.4c-0.7-0.6-1.7-0.8-2.9-0.5
		c-3.1,0.5-5.4,2.5-7.5,4.4c-1.9,1.6-3.5,3.3-4.9,4.9c-0.4,0.5-0.6,1-0.5,1.4c0.1,0.6,0.7,1.1,1.2,1.4c0.3,0.2,0.6,0.3,0.9,0.5
		c5.2,2,7.5,6.6,9.6,10.6c1.9,3.7,4.4,5.8,7.9,6.7c1.5,0.4,3,1,5,1.9c1.8,0.9,2.7,2.4,2.7,4.5c-0.2,4.9-0.3,9.7-0.3,14.4
		c0,1.2,0.1,2.4,0.4,3.4c0.9,3.1-1.4,10.2-5.3,11.8c-1.6,0.7-3.7,1.1-4.8-1.6c-1-2.2-2-4.8-2.5-7.4c-0.6-3.5-1.5-6.2-3-8.6
		c-0.5-0.9-0.7-2.6,0-3.5c0.6-0.8,0.4-1.3-0.3-2.3c-2.7-3.8-6.4-7.1-11.6-10.3c-4.6-2.9-9-6-13.3-9.1l-1.4-1
		c-1.6-1.2-3.1-2.6-4.4-4.1c-0.9-1.1-1.5-2.6-1.5-3.9c-0.2-8.7,2.5-16.9,8.2-25.1c2.5-3.6,5.2-7.2,7.9-10.6c0.9-1.1,1.7-2.2,2.6-3.4
		c1.2-1.6,1.2-1.8-0.1-3.2c-0.7-0.7-1.3-1.4-2-2.1c-0.1-0.1-0.1-0.1-0.2-0.2c0,0.1,0,0.3-0.1,0.4c-0.2,1.1-0.4,2.2-0.7,3.3
		c-1.5,4.7-3.2,9.1-8.5,10.7c-2.7,0.8-5.3,0.4-7.8,0.1h-0.1c-1.9-0.3-3.7-0.6-5.7-0.9c-0.6-0.1-1.1-0.2-1.7-0.3
		c-0.5,2.7-3.1,3-4.8,3.2h-0.2c-4.2,0.5-8.2-0.7-11.9-3.6c-3.9-3.2-6.4-7.1-7.3-11.6c-0.7-3.2-0.5-6.3,0.6-9.2c0.8-2,2.7-2.3,4-2.4
		c6.1-0.7,10.6,0.9,13.8,4.8c2.2,2.7,4.8,3.2,8.5,1.7c2.6-1.1,5.4-2.5,7-5.1c1-1.6,1.7-3.7,2-5.9c0.5-3.5,0.7-6.8,0.6-10v-0.6
		c-0.1-2.9-0.1-5.6-1.9-7.9c-0.4-0.5-0.6-0.6-0.6-0.6s-0.2,0-0.5,0.4c-1.1,1-2.3,2-3.7,1.8c-1.4-0.2-2.3-1.5-3.1-2.8
		c0-0.1-0.1-0.2-0.1-0.2l-1.9-3.8l-2.4,0.3v-1c0-0.6,0-1.2,0-1.8c0-1.4,0-2.7-0.1-4c-0.1-0.8-0.4-1.6-0.9-2.2
		c-0.7-0.8-1.4-1.7-1.2-3.2c0-0.3,0-0.6,0-1s0-0.9,0-1.4c0.3-2.2-0.3-3.8-2.1-4.9c-0.5-0.3-0.5-0.9-0.5-1.1s0-1.4,0.7-1.8
		c2.3-1.6,5-3.4,7.7-5c1-0.6,2-0.9,3.1-1.2c0.5-0.1,0.9-0.3,1.4-0.4c2.9-1.1,5.7-0.9,8,0.6c2.4,1.5,3.9,4.2,4.3,7.5
		c0.2,1.9,0.1,3.9,0.1,5.7v0.8c-0.1,1.7,1,2.6,2.2,3.7c0.2,0.2,0.4,0.4,0.6,0.5c1.6,1.5,3.7,2.1,6.1,2.6c4.4,0.9,7.8,3.5,10.9,6.1
		c2.9,2.4,5,5.5,7.1,8.5c0.7,1,1.3,1.9,2,2.9c0.6,0.8,1.2,1.6,1.9,2.3c1,1.1,2,2.3,2.8,3.6c1.7,2.8,3.1,5.5,4.1,8.2
		c1.8,4.8,4.8,9.1,7.6,13.3c4.9,7.1,8,14.9,9.1,23.1c0.3,2.4,0.5,4.5,0.6,6.5c0.1,2.1,0.1,4.2,0.2,6.2c0,2,0.1,4.2,0.2,6.2
		c0.1,1.4,0.2,2.8,0.4,4.2c0.1,0.8,0.2,1.6,0.2,2.4c0.1,1.4,1,2.2,2.1,3.1c0.4,0.3,0.8,0.6,1.2,1c1.4,1.1,2.9,2.3,4.1,3.7
		c1.6,1.9,1.9,4.2,2.2,6.4c0.1,0.5,0.2,1.1,0.3,1.6c0.1,0.7,0.2,1.4,0.3,2.1c0.1,0.8,0.2,1.6,0.4,2.4c0.5,2.4,2,3.8,4.8,4.5
		C117.6,470.4,118.9,471.6,119.7,473.6z M243.2,405.9c2.1,0,4.1,0,6.2,0c0,0.4,0,0.6,0,0.9c0,11.7,0,23.4,0,35
		c0,1.2-0.1,2.4-0.3,3.6c-0.4,2.1-1.3,3.9-3.3,5.1c-2.1,1.2-4.3,1.7-6.7,1.2c-3.3-0.6-5.7-2.2-6.7-5.5c-0.4-1.7-0.6-3.4-0.6-5.2
		c-0.1-11.4,0-22.9,0-34.3c0-0.3,0-0.6,0-1c2.2,0,4.2,0,6.2,0c0-5.5,0-10.9,0-16.4c-12.5,0-24.9,0-37.4,0c0,5.5,0,10.9,0,16.4
		c2.1,0,4.1,0,6.3,0c0,0.5,0,0.9,0,1.2c0,11.7,0,23.3,0,35c0,2.6,0.2,5.2,0.6,7.7c1.6,9.6,7,16.3,16.4,19.7
		c4.6,1.7,9.5,2.3,14.5,2.5c5.9,0.2,11.6-0.2,17.2-1.8c8.4-2.4,14.3-7.5,17-15.7c1.2-3.7,1.6-7.4,1.6-11.3c0-12,0-24,0-36
		c0-0.4,0-0.8,0-1.3c2.2,0,4.2,0,6.3,0c0-5.5,0-11,0-16.4c-12.5,0-24.9,0-37.4,0C243.2,395,243.2,400.4,243.2,405.9z M434.9,443.6
		c0.7,4.7,0.5,9.3-1,13.8c-1.8,5.5-5.6,9.2-11.2,11.2c-3.7,1.3-7.5,1.9-11.3,2c-8.9,0.2-17.9,0.2-26.8,0.2c-5.5,0-11.2,0-16.7,0
		c-0.3,0-0.6,0-1,0c0-5.5,0-10.9,0-16.4c2.1,0,4.1,0,6.2,0c0-16.2,0-32.3,0-48.5c-2.1,0-4,0-6.2,0c0-5.5,0-10.9,0-16.5
		c0.3,0,0.6,0,0.9,0c12.7,0,25.5,0,38.1,0c4.7,0,9.3,0.4,13.9,1.7c7.8,2.2,12.8,8.2,13.6,16.1c0.3,3.4,0.2,6.7-0.7,10
		c-1.5,5.2-4.9,8.7-10.2,10.6c-0.5,0.2-1.1,0.4-1.8,0.7c0.9,0.3,1.7,0.5,2.5,0.8C430.2,431.6,433.9,436.6,434.9,443.6z M398.2,420.8
		c0.3,0,0.6,0,0.8,0c1.2-0.1,2.5-0.1,3.6-0.2c2.7-0.3,4.2-1.6,4.8-4.1c0.5-2.1,0.5-4.3,0.1-6.4c-0.4-1.7-1.4-2.8-3.2-3.3
		c-2-0.6-4-0.6-6.2-0.6C398.2,411.1,398.2,415.9,398.2,420.8z M409.2,441.9c-0.4-1.5-1.1-2.7-2.7-3.4c-2.7-1.3-5.5-1.1-8.4-1.2
		c0,5.6,0,11.1,0,16.7c2.6,0.1,4.9,0,7.4-0.7c2.1-0.6,3.4-2,3.8-4.1C409.8,446.9,409.8,444.4,409.2,441.9z M200.3,454.3
		c0,5.5,0,10.9,0,16.4c-0.3,0-0.5,0-0.8,0c-8.2,0-16.5,0-24.7,0c-0.6,0-0.9-0.2-1.2-0.8c-3.6-8.3-7.2-16.7-10.9-25
		c-0.6-1.5-0.7-1.6-2.6-1.2c0,8.9,0,17.9,0,26.9c-10.5,0-20.8,0-31.2,0c0-5.4,0-10.9,0-16.4c2.1,0,4.1,0,6.2,0c0-16.2,0-32.3,0-48.5
		c-2.1,0-4,0-6.2,0c0-5.5,0-10.9,0-16.5c0.3,0,0.6,0,0.9,0c11.4,0,22.8,0,34.3,0c4.6,0,9.2,0.4,13.8,1.7c8.9,2.5,14.5,8,16.4,16.9
		c1.4,6.8,1.2,13.5-0.8,20.1c-1.3,4.1-3.7,7.6-7.2,10.3c-0.1,0.1-0.2,0.2-0.4,0.3c0.8,1.6,1.5,3.2,2.4,4.9c1.6,3.3,3.3,6.7,4.9,10
		c0.2,0.5,0.5,0.8,1.1,0.7C196.2,454.3,198.3,454.3,200.3,454.3z M169,412.5c-0.8-4.4-4.9-5.5-8.8-5c0,6.5,0,12.9,0,19.5
		c1.2,0,2.3,0.1,3.4,0c3.1-0.3,4.6-1.6,5.3-4.5C169.7,419.1,169.7,415.8,169,412.5z M321.7,441.3c3.8,0,7.5,0,11.3,0
		c0,0.4,0,0.6,0,0.9c0,2.6,0,5.1,0,7.7c0,0.7-0.2,1-0.8,1.3c-3,1.3-6.1,2-9.3,1.8c-2.4-0.1-4.3-0.9-6-2.5c-2.4-2.2-3.6-5-4.3-8
		c-1.3-6.1-1.5-12.2-0.8-18.3c0.4-3.8,1.4-7.5,3.7-10.8c2.5-3.6,5.9-5.9,10.4-6.1c3.6-0.2,7.2,0.1,10.7,1.1c0.8,0.2,1.1,0.6,1,1.4
		c-0.1,1.6,0,3.2,0,4.9c5.6,0,11.2,0,16.7,0c0-0.2,0.1-0.3,0.1-0.5c0-6.7,0-13.3,0-20c0-0.6-0.3-0.7-0.8-0.9
		c-6.7-2.7-13.6-4.2-20.7-4.8c-7-0.6-14-0.3-20.7,1.6s-12.4,5.4-16.8,10.7c-5.6,6.8-8.3,14.8-9.1,23.4c-0.5,5.3-0.5,10.5,0,15.8
		c0.5,6,2.1,11.8,5,17.2c3.2,5.8,7.7,10.2,14.1,12.6c5.3,2,10.9,2.6,16.5,2c4.2-0.5,7.9-1.9,11-4.8c0.1-0.1,0.2-0.1,0.4-0.2
		c0,1.4,0,2.7,0,4c8.4,0,16.6,0,24.9,0c0-16.1,0-32.2,0-48.2c-12.1,0-24.2,0-36.2,0C321.7,428.8,321.7,435,321.7,441.3z
		 M504.4,389.4c-8.3,0-16.5,0-24.8,0c-0.6,0-0.7,0.4-0.8,0.8c-2,6.3-3.9,12.6-6,18.9c-0.7,2.5-1.5,4.9-2.3,7.4c-0.1,0-0.1,0-0.2,0
		c-2.7-9-5.3-18-7.9-26.9c-8.6,0-17.2,0-25.9,0c0,5.5,0,10.9,0,16.4c1.7,0,3.5,0,5.1,0c0.7,0,1,0.2,1.2,0.8
		c4.7,12.2,9.5,24.4,14.3,36.6c0.2,0.5,0.3,1,0.3,1.5c0,2.9,0,5.7,0,8.6c0,0.3,0,0.6,0,1c-3,0-5.9,0-8.7,0c0,5.5,0,11,0,16.4
		c14.2,0,28.3,0,42.4,0c0-5.5,0-10.9,0-16.4c-2.9,0-5.7,0-8.7,0c0-0.4,0-0.7,0-1c0-2.8,0-5.5,0-8.3c0-0.7,0.1-1.4,0.4-2
		c4.9-11.9,9.9-23.7,14.9-35.6c0.6-1.5,0.6-1.5,2.4-1.5c1.4,0,3,0,4.5,0c0-5.5,0-10.9,0-16.4C504.5,389.5,504.4,389.4,504.4,389.4z
		 M151.5,377.9h-20v-31.8h19.3c6.6,0,9.4,4.4,9.4,8.1c0,4-2.3,6.6-5.4,7.3c3.4,0.5,6.1,3.7,6.1,7.8
		C160.9,373.7,157.9,377.9,151.5,377.9z M141.1,357.8h7.4c1,0,1.9-0.8,1.9-1.9s-0.9-1.8-1.9-1.8h-7.4V357.8z M151.1,367.9
		c0-1.1-0.9-2.1-2.2-2.1h-7.7v4.1h7.7C150.3,369.9,151.1,369.1,151.1,367.9z M186.5,369.5h-12.1v-23.4h-9.6v31.8h21.7L186.5,369.5
		L186.5,369.5z M197.8,377.9h-10.9l11.7-31.8h12.1l11.7,31.8h-10.9l-1.1-3.7H199L197.8,377.9z M201.5,365.8h6.3l-3.1-10.3
		L201.5,365.8z M238.6,378.5c8.3,0,12.6-5.1,14.5-9.3l-8.3-3.8c-0.8,2.5-3.3,4.6-6.2,4.6c-4.6,0-7.7-3.5-7.7-8c0-4.4,3.1-8,7.7-8
		c2.9,0,5.3,2.1,6.2,4.6l8.3-3.9c-1.9-4.4-6.1-9.3-14.5-9.3c-10,0-17.5,6.6-17.5,16.5S228.6,378.5,238.6,378.5z M265.7,369.1
		l1.8-2.4l7.2,11.2h11.7l-12.5-17l12-14.8H274l-8.3,11.9v-11.9H256v31.8h9.6v-8.8H265.7z M284.4,362c0-9.8,7.6-16.5,17.4-16.5
		s17.4,6.7,17.4,16.5c0,9.8-7.6,16.5-17.4,16.5S284.4,371.8,284.4,362z M294.2,362c0,4.4,3,8,7.6,8s7.6-3.5,7.6-8c0-4.4-3-8-7.6-8
		C297.2,354.1,294.2,357.6,294.2,362z M344.3,364.5c0,3.1-2,5.5-5.9,5.5c-4,0-6-2.4-6-5.5v-18.4h-9.8v18.7c0,7.9,5,13.6,15.7,13.6
		s15.7-5.8,15.7-13.7V346h-9.8L344.3,364.5L344.3,364.5z M366.1,377.9h9.6v-23.4h8.5v-8.4h-26.7v8.4h8.5v23.4H366.1z"/>
</g>
</svg>
