<?xml version="1.0" encoding="utf-8"?>
<!-- Generator: Adobe Illustrator 19.0.0, SVG Export Plug-In . SVG Version: 6.00 Build 0)  -->
<svg version="1.1" id="Layer_1" xmlns="http://www.w3.org/2000/svg" xmlns:xlink="http://www.w3.org/1999/xlink" x="0px" y="0px"
	 viewBox="0.1 145 497.9 210.6" style="enable-background:new 0.1 145 497.9 210.6;" xml:space="preserve">
<g id="Layer_1_1_">
</g>
<g id="Layer_2">
	<path d="M149,325.7c1.5,3.9,1.2,7.1-1,10.4c-1.6,2.3-3,4.7-4.3,7c-1.2,1.9-2.3,4-3.6,5.8c-0.8,1.2-2.1,2.3-3.8,3.4
		c-2,1.2-4,2.4-6.2,2.9c-1.3,0.3-2.5,0.4-3.8,0.4s-2.5-0.1-3.7-0.4c-1.5-0.3-2.7-1.5-3.2-3.1c-0.5-1.7-0.2-3.4,0.8-4.5
		c1.6-1.8,1.8-3.9,2.1-6.1c0.1-0.5,0.1-0.9,0.2-1.4c0.1-0.5,0.2-1.1,0.2-1.6c0.2-1.3,0.4-2.7,0.7-4.1c0.3-1,1-2.5,2.2-3.1
		c0.9-0.5,1.1-1,0.7-2c-1.7-4.3-3.7-8.9-7.3-12.4c-2.9-2.8-6.2-6.1-8.7-9.9c-2.1-3.1-3.8-6.4-5.3-9.7c-0.8-1.5-1.5-3-2.3-4.4
		c-0.9-1.6-1.7-3.3-2.6-4.8c-0.8-1.6-1.7-3.1-2.5-4.6c-0.7-1.2-1.7-2-3.4-2.5c-3.8-1.1-5.3-3.3-5.3-7.3V273v-0.3
		c0-1-0.2-2.3-1.2-3.1c-0.8-0.7-2.1-1-3.7-0.7c-3.9,0.6-6.7,3.1-9.5,5.4c-2.4,2.1-4.4,4.2-6.1,6.2c-0.5,0.6-0.8,1.3-0.7,1.8
		c0.1,0.8,0.9,1.4,1.5,1.8c0.4,0.2,0.8,0.4,1.2,0.6c6.5,2.5,9.5,8.3,12.1,13.3c2.4,4.6,5.5,7.2,9.9,8.4c1.9,0.5,3.8,1.2,6.2,2.4
		c2.3,1.1,3.5,3.1,3.4,5.6c-0.2,6.1-0.3,12.3-0.4,18.1c0,1.5,0.2,3,0.5,4.2c1.2,4-1.7,12.7-6.6,14.8c-2.1,0.9-4.6,1.4-6.1-2
		c-1.2-2.8-2.6-6-3.2-9.2c-0.8-4.3-2-7.8-3.8-10.8c-0.7-1.1-0.9-3.3-0.1-4.3c0.8-1.1,0.5-1.7-0.4-3c-3.4-4.7-8-8.9-14.5-12.9
		c-5.7-3.6-11.4-7.6-16.7-11.5l-1.8-1.3c-2.1-1.5-4-3.3-5.5-5.1c-1.1-1.4-1.9-3.4-1.9-4.9c-0.2-11,3.2-21.2,10.3-31.5
		c3.2-4.5,6.6-9,9.9-13.3c1.1-1.4,2.2-2.9,3.3-4.2c1.6-2.1,1.6-2.3-0.2-4.1c-0.9-0.9-1.7-1.8-2.5-2.7c-0.1-0.1-0.1-0.1-0.2-0.2
		c0,0.2-0.1,0.4-0.1,0.5c-0.2,1.4-0.5,2.8-0.9,4.2c-1.8,5.9-4.1,11.4-10.8,13.4c-3.4,1.1-6.6,0.6-9.8,0.1h-0.2
		c-2.4-0.4-4.6-0.8-7.1-1.2c-0.7-0.1-1.5-0.3-2.2-0.4c-0.7,3.4-3.9,3.8-6.1,4h-0.3c-5.3,0.7-10.4-0.9-14.9-4.5
		c-4.9-4-8-8.9-9.2-14.6c-0.8-4.1-0.6-7.9,0.8-11.5c1-2.6,3.4-2.9,4.9-3c7.6-0.8,13.3,1.2,17.4,6c2.8,3.4,6.1,4.1,10.7,2.1
		c3.3-1.4,6.7-3.2,8.8-6.4c1.2-2.1,2.2-4.6,2.6-7.4c0.6-4.3,0.9-8.6,0.8-12.6v-0.7c-0.1-3.7-0.2-7-2.4-9.9c-0.5-0.7-0.7-0.7-0.7-0.7
		s-0.2,0-0.7,0.4c-1.3,1.3-3,2.5-4.6,2.2c-1.8-0.3-3-2-3.9-3.6c-0.1-0.1-0.1-0.2-0.2-0.3l-2.5-4.8l-3.1,0.4v-1.5c0-0.8,0-1.5,0-2.2
		c0-1.7,0.1-3.4-0.1-4.9c-0.1-1-0.6-2.1-1.2-2.8c-0.9-1-1.7-2.2-1.5-4.1c0-0.4,0-0.8,0-1.3c0-0.6,0-1.1,0-1.7
		c0.4-2.9-0.4-4.7-2.6-6.1c-0.6-0.4-0.6-1.2-0.6-1.4c0-0.3,0-1.7,0.8-2.3c2.9-2,6.2-4.2,9.7-6.2c1.2-0.7,2.6-1.1,3.9-1.5
		c0.6-0.2,1.2-0.4,1.7-0.6c3.7-1.3,7.1-1.1,10,0.7c3,1.9,4.9,5.3,5.4,9.5c0.3,2.4,0.2,4.8,0.1,7.2v1c-0.1,2.1,1.3,3.3,2.8,4.6
		c0.3,0.2,0.5,0.5,0.8,0.7c2.1,1.9,4.6,2.6,7.6,3.3c5.4,1.2,9.8,4.4,13.6,7.6c3.7,3.1,6.3,6.9,8.9,10.7c0.8,1.2,1.7,2.5,2.6,3.7
		c0.7,1,1.6,2,2.4,3c1.2,1.5,2.5,3,3.5,4.5c2.2,3.6,3.9,6.9,5.1,10.3c2.3,6,6,11.5,9.6,16.7c6.1,9,10,18.8,11.4,29.1
		c0.4,3.1,0.7,5.7,0.8,8.2c0.1,2.6,0.2,5.2,0.2,7.8c0.1,2.6,0.1,5.2,0.2,7.8c0.1,1.8,0.3,3.6,0.5,5.2c0.1,1,0.2,2,0.3,3
		c0.2,1.7,1.3,2.8,2.7,4c0.5,0.4,1,0.8,1.6,1.2c1.8,1.4,3.7,2.9,5.1,4.6c2,2.4,2.5,5.2,2.9,8c0.1,0.7,0.2,1.4,0.3,2.1
		c0.2,0.9,0.3,1.8,0.4,2.6c0.1,1,0.3,2.1,0.5,3.1c0.6,3,2.6,4.8,5.9,5.6C146.4,321.7,148.1,323.1,149,325.7z M255,239.6
		c1.9,0,3.7,0,5.7,0c0,0.3,0,0.6,0,0.8c0,10.9,0,21.7,0,32.6c0,1.1-0.1,2.3-0.3,3.4c-0.3,2-1.2,3.7-3,4.7c-1.9,1.1-4,1.6-6.2,1.2
		c-3-0.6-5.4-2.1-6.2-5.1c-0.4-1.6-0.6-3.2-0.6-4.7c-0.1-10.6,0-21.2,0-31.8c0-0.3,0-0.6,0-0.9c2,0,3.9,0,5.8,0c0-5.1,0-10.2,0-15.2
		c-11.7,0-23.2,0-34.8,0c0,5,0,10.2,0,15.2c1.9,0,3.7,0,5.8,0c0,0.5,0,0.8,0,1.1c0,10.9,0,21.6,0,32.5c0,2.4,0.2,4.8,0.5,7.1
		c1.5,8.9,6.5,15.1,15.3,18.3c4.4,1.6,8.8,2.2,13.5,2.3c5.5,0.2,10.8-0.2,16-1.7c7.8-2.3,13.3-7,15.8-14.6c1.1-3.4,1.5-6.9,1.5-10.5
		c0-11.2,0-22.3,0-33.4c0-0.4,0-0.7,0-1.2c2,0,3.9,0,5.8,0c0-5.1,0-10.2,0-15.2c-11.7,0-23.2,0-34.8,0
		C255,229.4,255,234.5,255,239.6z M433,274.7c0.6,4.3,0.4,8.7-0.9,12.8c-1.7,5.1-5.3,8.5-10.3,10.4c-3.3,1.2-7,1.8-10.5,1.9
		c-8.3,0.2-16.6,0.1-24.9,0.2c-5.2,0-10.3,0-15.6,0c-0.3,0-0.6,0-0.9,0c0-5.1,0-10.2,0-15.2c1.9,0,3.7,0,5.7,0c0-15,0-29.9,0-45.1
		c-1.9,0-3.7,0-5.7,0c0-5.1,0-10.2,0-15.3c0.3,0,0.5,0,0.8,0c11.8,0,23.6,0,35.4,0c4.4,0,8.6,0.4,12.9,1.6c7.3,2,12,7.6,12.6,14.9
		c0.3,3.2,0.2,6.2-0.7,9.3c-1.4,4.8-4.6,8.1-9.4,9.9c-0.5,0.2-1,0.4-1.7,0.7c0.9,0.3,1.6,0.5,2.3,0.7
		C428.7,263.5,432.1,268.2,433,274.7z M398.9,253.5c0.3,0,0.5,0,0.8,0c1.1-0.1,2.2-0.1,3.3-0.2c2.5-0.3,3.9-1.5,4.5-3.9
		c0.5-2,0.5-4,0.1-5.9c-0.3-1.6-1.3-2.6-2.9-3.2c-1.8-0.6-3.7-0.6-5.7-0.6C398.9,244.5,398.9,248.9,398.9,253.5z M409.1,273.1
		c-0.3-1.4-1.1-2.6-2.4-3.2c-2.4-1.2-5.2-1-7.8-1.1c0,5.2,0,10.4,0,15.5c2.3,0.1,4.7,0,6.8-0.6c1.9-0.6,3.1-1.9,3.5-3.8
		C409.7,277.8,409.7,275.4,409.1,273.1z M215.2,284.7c0,5.1,0,10.2,0,15.2c-0.2,0-0.5,0-0.8,0c-7.7,0-15.3,0-23,0
		c-0.6,0-0.9-0.2-1.1-0.7c-3.3-7.7-6.7-15.5-10.1-23.2c-0.6-1.4-0.7-1.5-2.4-1.1c0,8.3,0,16.7,0,25c-9.7,0-19.4,0-29,0
		c0-5,0-10.1,0-15.2c1.9,0,3.7,0,5.8,0c0-15,0-30,0-45.1c-1.9,0-3.7,0-5.7,0c0-5.1,0-10.2,0-15.3c0.3,0,0.5,0,0.8,0
		c10.6,0,21.2,0,31.8,0c4.4,0,8.6,0.4,12.8,1.6c8.2,2.3,13.5,7.4,15.2,15.7c1.3,6.3,1.1,12.6-0.8,18.7c-1.2,3.9-3.4,7-6.7,9.6
		c-0.1,0.1-0.2,0.2-0.3,0.3c0.7,1.5,1.4,3.1,2.2,4.5c1.5,3.1,3,6.2,4.6,9.3c0.2,0.5,0.5,0.7,1.1,0.7
		C211.5,284.7,213.3,284.7,215.2,284.7z M186.1,245.7c-0.7-4.2-4.6-5.1-8.2-4.6c0,6,0,12.1,0,18.1c1.1,0,2.1,0.1,3.1,0
		c2.8-0.3,4.3-1.5,5-4.2C186.8,252,186.7,248.9,186.1,245.7z M327.9,272.5c3.5,0,7,0,10.4,0c0,0.3,0,0.6,0,0.9c0,2.4,0,4.7,0,7.1
		c0,0.6-0.2,0.9-0.8,1.2c-2.7,1.2-5.6,1.9-8.6,1.7c-2.1-0.1-4-0.9-5.6-2.3c-2.2-2-3.3-4.6-4.1-7.4c-1.3-5.6-1.4-11.4-0.8-17
		c0.4-3.6,1.3-7,3.3-10c2.3-3.4,5.4-5.4,9.6-5.7c3.3-0.2,6.7,0.1,9.9,1c0.8,0.2,1,0.5,1,1.3c-0.1,1.5,0,3,0,4.5c5.3,0,10.3,0,15.6,0
		c0-0.2,0.1-0.3,0.1-0.4c0-6.2,0-12.4,0-18.6c0-0.6-0.3-0.7-0.7-0.9c-6.2-2.6-12.7-3.9-19.3-4.4c-6.5-0.5-12.9-0.3-19.3,1.5
		c-6.3,1.8-11.6,4.9-15.6,9.9c-5.3,6.3-7.7,13.7-8.5,21.7c-0.5,4.9-0.5,9.8,0,14.7c0.5,5.6,1.9,11,4.7,16c2.9,5.3,7.2,9.5,13.1,11.8
		c5,1.9,10.1,2.5,15.4,1.9c3.9-0.5,7.4-1.8,10.1-4.5c0.1-0.1,0.2-0.1,0.4-0.2c0,1.3,0,2.5,0,3.7c7.8,0,15.5,0,23.2,0
		c0-15,0-29.9,0-44.9c-11.2,0-22.5,0-33.6,0C327.9,260.9,327.9,266.7,327.9,272.5z M497.6,224.3c-7.7,0-15.4,0-23,0
		c-0.6,0-0.6,0.3-0.7,0.7c-1.8,5.8-3.6,11.8-5.5,17.6c-0.7,2.3-1.4,4.5-2.1,6.8h-0.1c-2.4-8.4-5-16.7-7.4-25c-8,0-16,0-24,0
		c0,5.1,0,10.2,0,15.2c1.6,0,3.2,0,4.8,0c0.6,0,0.9,0.1,1.1,0.8c4.5,11.4,8.8,22.7,13.3,34c0.2,0.4,0.3,0.9,0.3,1.4c0,2.7,0,5.3,0,8
		c0,0.3,0,0.6,0,0.9c-2.7,0-5.5,0-8.1,0c0,5.1,0,10.2,0,15.2c13.2,0,26.2,0,39.4,0c0-5,0-10.1,0-15.2c-2.7,0-5.4,0-8.1,0
		c0-0.4,0-0.7,0-1c0-2.6,0-5.1,0-7.7c0-0.6,0.1-1.3,0.4-1.9c4.6-11.1,9.2-22,13.8-33.1c0.6-1.4,0.6-1.4,2.2-1.4c1.4,0,2.7,0,4.2,0
		c0-5.1,0-10.2,0-15.2C497.7,224.4,497.7,224.3,497.6,224.3z M169.9,213.6h-18.6v-29.6h18c6.1,0,8.8,4.1,8.8,7.5
		c0,3.7-2.2,6.1-5,6.8c3.2,0.5,5.6,3.5,5.6,7.2C178.6,209.7,175.8,213.6,169.9,213.6z M160.2,194.9h6.9c0.9,0,1.8-0.7,1.8-1.8
		c0-1-0.9-1.7-1.8-1.7h-6.9V194.9z M169.5,204.3c0-1.1-0.8-1.9-2.1-1.9h-7.2v3.8h7.2C168.7,206.1,169.5,205.4,169.5,204.3z
		 M202.4,205.8h-11.3v-21.7h-9v29.6h20.2L202.4,205.8L202.4,205.8z M213,213.6h-10.2l10.9-29.6h11.3l10.9,29.6h-10.2l-1.1-3.5h-10.7
		L213,213.6z M216.5,202.4h5.8l-3-9.5L216.5,202.4z M250.8,214.1c7.8,0,11.7-4.7,13.4-8.7l-7.7-3.6c-0.8,2.3-3.1,4.3-5.7,4.3
		c-4.3,0-7.2-3.3-7.2-7.4c0-4.2,2.9-7.4,7.2-7.4c2.7,0,4.9,2,5.7,4.3l7.7-3.6c-1.8-4.1-5.6-8.6-13.4-8.6c-9.3,0-16.3,6.1-16.3,15.3
		C234.5,207.9,241.6,214.1,250.8,214.1z M276,205.4l1.7-2.2l6.6,10.4h10.9l-11.7-15.8l11.2-13.7h-11l-7.8,11.1v-11.1h-9v29.6h9
		L276,205.4L276,205.4z M293.4,198.8c0-9.1,7-15.3,16.2-15.3c9.2,0,16.2,6.2,16.2,15.3c0,9.1-7,15.3-16.2,15.3
		C300.5,214.1,293.4,207.9,293.4,198.8z M302.5,198.8c0,4.2,2.8,7.4,7.1,7.4s7.1-3.3,7.1-7.4c0-4.2-2.8-7.4-7.1-7.4
		S302.5,194.8,302.5,198.8z M349.2,201.2c0,2.9-1.9,5.1-5.5,5.1c-3.7,0-5.5-2.3-5.5-5.1v-17.1H329v17.4c0,7.3,4.6,12.7,14.6,12.7
		c10,0,14.6-5.3,14.6-12.7V184h-9.1L349.2,201.2L349.2,201.2z M369.3,213.6h9v-21.7h7.9v-7.8h-24.8v7.8h7.9V213.6z"/>
</g>
</svg>
